<svg width="135" height="28" viewBox="0 0 135 28" fill="none" xmlns="http://www.w3.org/2000/svg">
<path d="M3.1489 15.417H7.27378V17.8478H0V4.92068H3.1489V15.417Z" fill="white"/>
<path d="M18.6644 15.5643H13.8398L13.0663 17.8478H9.77012L14.4474 4.92068H18.0935L22.7708 17.8478H19.4378L18.6644 15.5643ZM17.8541 13.1336L16.2521 8.40105L14.6684 13.1336H17.8541Z" fill="white"/>
<path d="M41.079 4.92068V7.44349H37.6539V17.8478H34.505V7.44349H31.0799V4.92068H41.079Z" fill="white"/>
<path d="M47.6497 4.92068V17.8478H44.5008V4.92068H47.6497Z" fill="white"/>
<path d="M54.9221 7.44349V10.0584H59.139V12.4891H54.9221V15.325H59.6915V17.8478H51.7732V4.92068H59.6915V7.44349H54.9221Z" fill="white"/>
<path d="M75.1416 17.8478H71.9927L66.7262 9.87422V17.8478H63.5772V4.92068H66.7262L71.9927 12.9311V4.92068H75.1416V17.8478Z" fill="white"/>
<path d="M105.39 4.92068V17.8478H102.241V4.92068H105.39Z" fill="white"/>
<path d="M118.813 4.92068V7.44349H115.387V17.8478H112.239V7.44349H108.813V4.92068H118.813Z" fill="white"/>
<path d="M130.282 15.5643H125.457L124.683 17.8478H121.387L126.065 4.92068H129.711L134.388 17.8478H131.055L130.282 15.5643ZM129.471 13.1336L127.869 8.40105L126.286 13.1336H129.471Z" fill="white"/>
<path d="M87.1666 1.8221C88.4791 1.4557 89.6987 1.39565 90.8254 1.64195C91.952 1.88824 92.9134 2.41009 93.7096 3.2075C94.5143 3.98978 95.0883 4.99579 95.4316 6.22552C95.7716 7.44342 95.8016 8.60127 95.5218 9.69906C95.2538 10.7935 94.6957 11.7396 93.8477 12.5371C93.0116 13.3313 91.9431 13.91 90.6425 14.2731L85.9778 15.5753L82.5019 3.1243L87.1666 1.8221ZM89.7146 11.7026C90.8615 11.3824 91.6668 10.8198 92.1303 10.0149C92.5939 9.20996 92.6656 8.23401 92.3454 7.08705C92.0252 5.94009 91.4568 5.13648 90.64 4.67621C89.8232 4.21594 88.8414 4.1459 87.6944 4.46609L86.2578 4.86715L88.2779 12.1036L89.7146 11.7026Z" fill="white"/>
<path d="M78.5167 10.7814C78.6503 10.8097 81.2109 11.4937 81.2202 11.5025C81.2249 11.5078 81.3662 11.9408 81.5354 12.464L81.8429 13.4167L89.5728 13.422C92.5938 13.4232 95.2267 13.4263 96.4995 13.4298C97.041 13.4313 97.2603 13.7008 97.1527 14.2315C96.9732 15.117 96.6595 16.6527 96.3028 18.3885L95.5184 22.201C95.3829 22.8595 94.8032 23.3321 94.1309 23.3321H89.534H84.8157C84.2007 23.3321 83.6561 22.9353 83.4674 22.35L82.0649 17.9979C81.1193 15.0639 80.3429 12.662 80.3397 12.6584C80.3366 12.6567 79.8584 12.5241 79.2776 12.365C78.6969 12.206 78.2124 12.0734 78.2015 12.0681C78.1922 12.0646 78.1829 12.0486 78.1829 12.0363C78.1829 12.0115 78.4313 10.7672 78.436 10.7655C78.4375 10.7637 78.4733 10.7708 78.5167 10.7814Z" fill="#00D2CF"/>
<path d="M92.8043 24.3925C93.1366 24.4615 93.3804 24.6082 93.6117 24.8804C93.9083 25.2303 94.0341 25.6138 94.017 26.107C94.0015 26.5312 93.8804 26.8634 93.6304 27.1692C93.3074 27.5616 92.8633 27.7489 92.3912 27.6924C91.7095 27.6111 91.1769 27.0225 91.0853 26.2466C91.0201 25.681 91.2126 25.1278 91.607 24.7496C91.9269 24.4438 92.3881 24.3059 92.8043 24.3925Z" fill="#00D2CF"/>
<path d="M86.4936 24.3927C86.7016 24.4334 86.8631 24.5058 87.0417 24.6402C87.2731 24.8151 87.4625 25.0644 87.5759 25.3418C87.6784 25.5893 87.6939 25.6777 87.6939 26.0276C87.6939 26.367 87.6737 26.4854 87.579 26.7258C87.4858 26.9573 87.3026 27.2118 87.1054 27.3832C86.6411 27.7827 85.9345 27.8092 85.4407 27.4433C84.8662 27.0192 84.6224 26.245 84.8305 25.5062C84.9656 25.0272 85.3243 24.619 85.7529 24.4563C85.9904 24.368 86.2451 24.345 86.4936 24.3927Z" fill="#00D2CF"/>
</svg>
